<?xml version="1.0" encoding="utf-8"?>
<!-- Generator: Adobe Illustrator 23.0.0, SVG Export Plug-In . SVG Version: 6.00 Build 0)  -->
<svg version="1.1" id="Layer_1" xmlns="http://www.w3.org/2000/svg" xmlns:xlink="http://www.w3.org/1999/xlink" x="0px" y="0px"
	 viewBox="0 0 226.77 226.77" style="enable-background:new 0 0 226.77 226.77;" xml:space="preserve">
<style type="text/css">
	.st0{fill:none;stroke:#000000;stroke-width:3;stroke-miterlimit:10;}
	.st1{fill:none;stroke:#000000;stroke-width:5;stroke-miterlimit:10;}
</style>
<path d="M142.3,88.04c-0.22,0.31-0.32,0.45-0.49,0.7c0.06,1.12,0.12,2.32,0.19,3.57c-0.22,0.44-0.46,0.91-0.7,1.39
	c-0.69,0.1-1.36,0.21-2,0.3c0.1,2.69,0.14,5.33,0.31,7.96c0.12,1.85,0.28,3.7,0.67,5.52c0.04,0.2,0.01,0.42,0.01,0.62
	c-0.81,0.16-14.4,0.17-15.3,0.01c-0.01-0.13-0.05-0.28-0.03-0.43c0.11-1.08,0.24-2.15,0.34-3.23c0.05-0.53,0.04-1.06,0.05-1.59
	c0.06-2.33,0.13-4.67,0.18-7c0.01-0.4,0-0.8,0-1.16c-0.71-0.66-1.47-0.14-2.2-0.18c-0.35-0.66-0.68-1.27-0.62-2.03
	c0.02-0.28,0-0.56,0.01-0.84c0.04-0.84-0.02-1.67-0.33-2.47c-0.05-0.14-0.04-0.3-0.06-0.54c0.45-0.19,0.89-0.39,1.34-0.57
	c0.46-0.19,0.93-0.35,1.56-0.59c0.19-0.19,0.49-0.5,0.79-0.8c0.21-0.9,0.8-1.65,0.85-2.58c-0.45-0.59-0.9-1.17-1.36-1.77
	c0.33-0.96,0.71-1.89,1.34-2.74c0.53,0.25,1,0.48,1.53,0.73c0.11-0.2,0.23-0.37,0.3-0.56c0.25-0.67,0.48-1.34,0.74-2
	c0.28-0.71,0.27-1.45,0.29-2.19c0.02-0.55,0.02-1.1,0.06-1.64c0.01-0.11,0.11-0.21,0.22-0.41c0.72,0.82,0.19,1.8,0.53,2.69
	c0.71-0.44,1.4-0.87,2.04-1.27c0-1.12,0-2.14,0-3.21c0.04-0.04,0.13-0.11,0.21-0.18c0.09,0.03,0.18,0.04,0.19,0.07
	c0.08,0.32,0.21,0.65,0.22,0.98c0.03,0.75,0.01,1.5,0.01,2.05c0.61,1.36,1.15,2.54,1.67,3.73c0.72,1.65,1.41,3.31,2.11,4.97
	c0.32,0.74,0.63,1.48,0.94,2.23c0.3,0.7,0.76,1.12,1.54,1.33C140.41,87.16,141.29,87.62,142.3,88.04z"/>
<g>
	<path d="M55.22,102.52l-3.98,1.42l-0.08,0.71l3.76,0.45l-0.24,2.04l-9.47-1.13l0.39-3.29c0.2-1.66,1.09-3.22,3.25-2.96
		c1.27,0.15,2.1,0.94,2.34,2.09l4.32-1.77L55.22,102.52z M47.42,103.08l-0.13,1.11l2.21,0.26l0.12-0.99
		c0.08-0.67-0.01-1.53-0.97-1.65C47.76,101.72,47.5,102.46,47.42,103.08z"/>
	<path d="M57.5,93.22c-0.76,2.6-3.29,3.96-6.18,3.12c-2.93-0.85-4.22-3.32-3.46-5.92c0.76-2.61,3.17-4,6.11-3.15
		C56.86,88.1,58.27,90.61,57.5,93.22z M49.85,90.99c-0.41,1.41,0.5,2.72,2.1,3.19c1.66,0.48,3.13-0.15,3.54-1.55
		c0.41-1.4-0.49-2.73-2.15-3.22C51.74,88.95,50.26,89.58,49.85,90.99z"/>
	<path d="M61.63,82.51c-1,2.05-3.02,2.64-5.08,1.64l-5.34-2.6l0.91-1.87l5.17,2.52c0.92,0.45,1.97,0.45,2.48-0.6
		c0.52-1.07-0.13-1.88-1.05-2.33l-5.17-2.52l0.92-1.88l5.34,2.6C61.86,78.47,62.62,80.47,61.63,82.51z"/>
	<path d="M68,71.51l-7.11-0.76l-0.02,0.03l5.12,3.57l-1.17,1.66l-7.78-5.52l1.38-1.95l7.09,0.76l0.02-0.03l-5.1-3.56l1.18-1.66
		l7.78,5.52L68,71.51z"/>
	<path d="M73.99,64.53l-2.28,2.29l-6.75-6.74l2.22-2.22c1.74-1.74,4.31-2.71,6.86-0.16C76.41,60.07,75.68,62.84,73.99,64.53z
		 M68.53,59.28l-0.74,0.74l3.95,3.94l0.7-0.7c1.06-1.06,1.56-2.51,0.05-4.02C70.98,57.73,69.55,58.26,68.53,59.28z"/>
	<path d="M84.41,55.84l-6.46-3.06l-0.03,0.02l3.65,5.06l-1.66,1.18l-5.52-7.77l1.95-1.38l6.44,3.06l0.03-0.02l-3.64-5.04l1.66-1.18
		l5.52,7.77L84.41,55.84z"/>
	<path d="M89.5,52.67l-4.26-8.54l5.22-2.6l0.87,1.75l-3.41,1.7l0.8,1.6l3.22-1.61l0.82,1.65l-3.22,1.61l0.88,1.77l3.61-1.8
		l0.88,1.76L89.5,52.67z"/>
	<path d="M99.04,40.39l2.43,7.17l-1.99,0.67l-2.43-7.17l-2.32,0.79l-0.63-1.86l6.63-2.25l0.63,1.86L99.04,40.39z"/>
	<path d="M115.52,44.87c-2.65,0.31-4.87-1.5-5.21-4.47c-0.35-3.04,1.47-5.21,4.1-5.51c1.21-0.14,2.56,0.19,3.38,1.02l-1.23,1.71
		c-0.46-0.54-1.18-0.74-1.84-0.67c-1.45,0.17-2.34,1.52-2.15,3.19c0.2,1.72,1.34,2.79,2.78,2.62c0.82-0.09,1.41-0.57,1.71-1.17
		l1.62,1.33C118.04,43.97,116.97,44.71,115.52,44.87z"/>
	<path d="M121.6,44.24l0.23-9.54l2.11,0.05l-0.18,7.53l3.36,0.08l-0.05,2.01L121.6,44.24z"/>
	<path d="M133.17,45.42c-2.25-0.37-3.4-2.14-3.03-4.4l0.97-5.86l2.06,0.34l-0.93,5.68c-0.17,1.01,0.13,2.01,1.29,2.21
		c1.17,0.19,1.76-0.67,1.93-1.68l0.94-5.68l2.07,0.34l-0.96,5.86C137.12,44.48,135.41,45.79,133.17,45.42z"/>
	<path d="M143.59,47.72l-3.29-1.08l2.97-9.06l3.29,1.08c1.28,0.42,2.64,1.42,2.04,3.25c-0.33,1-1.09,1.49-1.99,1.52l-0.01,0.03
		c0.89,0.49,1.39,1.47,1,2.66C146.96,48.09,145.17,48.24,143.59,47.72z M144.6,43.8l-1.11-0.36l-0.68,2.07l1.12,0.37
		c0.63,0.21,1.46,0.27,1.75-0.62C145.93,44.5,145.45,44.08,144.6,43.8z M145.61,40.27l-0.98-0.32l-0.61,1.87l1.07,0.35
		c0.75,0.24,1.29,0.04,1.5-0.6C146.79,40.96,146.45,40.55,145.61,40.27z"/>
	<path d="M157.9,54.71c-2.37-1.44-3.02-4.21-1.45-6.77c1.59-2.61,4.37-3.2,6.63-1.82c1.16,0.71,1.98,1.79,2.2,2.82l-1.99,0.72
		c-0.08-0.65-0.48-1.33-1.2-1.77c-1.25-0.77-2.84-0.25-3.73,1.21c-0.91,1.49-0.76,3.05,0.69,3.94c0.42,0.26,0.85,0.42,1.25,0.46
		l0.91-1.48l-1.41-0.86l0.97-1.58l3.05,1.86l-2.63,4.31C160.21,55.72,159.04,55.4,157.9,54.71z"/>
	<path d="M167.28,61.39l1.02-4.1l-0.54-0.46l-2.45,2.88l-1.57-1.33l6.17-7.26l2.52,2.14c1.27,1.08,2.08,2.68,0.67,4.35
		c-0.83,0.97-1.94,1.23-3.04,0.79l-0.91,4.58L167.28,61.39z M171.11,54.58l-0.85-0.72l-1.44,1.69l0.76,0.64
		c0.51,0.44,1.28,0.84,1.91,0.1C172.07,55.62,171.59,54.98,171.11,54.58z"/>
	<path d="M175.03,69.48l0.98-1.73l-2.2-2.54l-1.83,0.74l-1.49-1.72l9.6-3.48l1.33,1.54l-4.86,8.96L175.03,69.48z M178.79,63.14
		l-3.2,1.31l1.43,1.65L178.79,63.14z"/>
	<path d="M177.75,73.02l1.69-1.06l6.94,0.52l-2.15-3.41l1.65-1.04l3.55,5.63l-1.56,0.98l-7.08-0.54l2.3,3.65l-1.69,1.06
		L177.75,73.02z"/>
</g>
<polyline class="st0" points="59.45,129.8 47.44,132.81 36.54,132.81 "/>
<polyline class="st0" points="204.13,94.65 196.72,96.89 188.94,100.42 178.01,102.38 140.01,109.18 122.97,109.66 108.36,109.24 
	108.27,115.3 98.93,117.59 "/>
<path d="M33.48,161.45c0,4.87-3.95,8.82-8.82,8.82s-8.82-3.95-8.82-8.82s3.95-8.82,8.82-8.82S33.48,156.58,33.48,161.45z
	 M30.19,166.47c0.09-0.13,0.18-0.26,0.26-0.4c1.29-2.26,0.68-5.49-1.39-7.24c-0.66-0.55-1.42-0.98-2.12-1.48
	c-0.51-0.37-1.04-0.74-1.49-1.18c-0.44-0.43-0.38-1,0.07-1.43c0.19-0.18,0.42-0.33,0.7-0.55c-0.23-0.02-0.37-0.05-0.51-0.04
	c-2.1,0.24-3.84,1.07-4.94,2.97c-0.58,1-0.74,2.11-0.83,3.23c-0.08,1-0.13,2.02-0.29,3.01c-0.12,0.77-0.68,1-1.39,0.68
	c-0.21-0.1-0.41-0.23-0.62-0.34c-0.03,0.02-0.06,0.05-0.1,0.07c0.17,0.28,0.29,0.61,0.51,0.85c1.54,1.72,3.41,2.71,5.77,2.18
	c1.03-0.23,1.99-0.76,2.99-1.15c0.75-0.3,1.5-0.63,2.27-0.85c0.55-0.16,0.95,0.18,1.02,0.75c0.03,0.29,0.01,0.58,0.01,0.88
	C30.13,166.46,30.16,166.46,30.19,166.47z"/>
<path class="st1" d="M46.47,155.23c-7.92-13.53-12.27-29.38-11.78-46.21c1.38-47.83,41.27-85.49,89.1-84.11s85.49,41.27,84.11,89.1
	c-1.38,47.83-41.27,85.49-89.1,84.11c-25.55-0.74-45.19-9.1-60.53-27.16"/>
<path d="M72.43,160.23c-2.29,1.18-4.35,2.3-6.46,3.33c-1.75,0.86-3.51,1.73-5.34,2.4c-2.94,1.06-5.93,1.99-8.92,2.9
	c-0.64,0.2-1.4,0.15-2.08,0.07c-0.95-0.11-1.89-0.35-3.09-0.58c-0.6,0.46-1.23,1.04-1.94,1.48c-0.48,0.29-1.07,0.47-1.63,0.57
	c-1.07,0.19-2.17,0.28-3.5,0.44c-0.54-0.24-1.34-0.6-2.4-1.08c-0.75-0.79-0.35-1.85,0.06-2.89c0.23-0.6,0.57-1.15,0.8-1.75
	c0.68-1.72,1.79-2.99,3.52-3.74c1.11-0.48,2.18-1.07,3.42-1.69c0.83,0.52,1.7,1.07,2.7,1.7c0.63-0.14,1.39-0.31,2.23-0.5
	c1.38-1.83,3.41-2.69,5.57-3.23c2.48-0.63,4.57-1.61,6.03-3.91c1.35-2.13,2.69-4.3,4.28-6.25c1.29-1.59,1.58-3.15,1.35-5.04
	c-0.23-1.85,0.15-3.63,1.07-5.1c-0.08-0.32-0.07-0.47-0.14-0.56c-1.14-1.4-2.43-2.66-3.12-4.42c-0.3-0.78-1.24-1.31-1.86-1.97
	c-1.23-1.31-1.95-2.76-2.16-4.65c-0.16-1.48-0.69-2.91-0.16-4.39c0.75-2.13,1.73-4.07,4.14-4.82c1.11-0.35,2.16-0.92,3.26-1.31
	c0.47-0.17,1.11-0.34,1.52-0.16c2.08,0.9,4.45,1.35,5.82,3.47c0.73,1.14,1.81,2.06,2.13,3.47c0.05,0.21,0.33,0.37,0.59,0.64
	c1.08-0.44,2.14-0.87,3.26-1.33c0.61-1.39,1.1-2.93,1.92-4.28c0.8-1.32,1.93-2.43,3.05-3.81c0.28-0.09,0.81-0.18,1.26-0.43
	c0.44-0.24,0.91-0.57,1.15-0.99c0.76-1.36,1.42-2.78,2.11-4.17c-0.64-2.12-0.12-4.05,0.66-5.96c1.32-3.2,2.63-6.39,3.29-9.82
	c0.31-1.59,0.85-3.14,1.3-4.71c0.05-0.19,0.07-0.42,0.18-0.55c1.39-1.65,1.24-3.81,1.94-5.66c-0.93-2.49-1.85-4.92-2.76-7.35
	c1.64-2.17,3.6-3.55,6.12-4.19c1.52-0.39,2.95-0.48,4.27,0.54c0.02,1.76,0.62,2.76-2.41,3.27c0.27,1.72-0.03,2.44,0.18,4.16
	c0.08,0.64-0.03,1.3-0.09,1.95c-0.09,1.1-0.18,2.21-0.3,3.3c-0.16,1.35-0.35,2.69-0.59,4.43c0.21,0.22,0.65,0.69,0.98,1.04
	c-0.2,5.72-1.49,11.07-2.68,16.41c-0.42,1.89-1.27,3.69-2.03,5.5c-1.13,2.71-2.42,5.35-3.52,8.08c-0.7,1.75-1.03,3.56-0.86,5.53
	c0.17,2.07,1.27,3.49,2.44,4.98c1.41,1.8,3.01,3.48,4.15,5.43c1.5,2.56,3.42,4.75,5.39,6.9c0.91,0.99,2.11,1.71,3.21,2.52
	c0.25,0.18,0.61,0.27,0.92,0.29c1.75,0.14,3.5,0.25,5.26,0.38c1.49,0.11,2.99,0.18,4.48,0.35c0.8,0.09,1.51,0.1,2.27-0.28
	c1.02-0.51,2.13-0.59,3.56-0.07c0.11,0.35,0.31,0.97,0.54,1.66c0.78-0.33,1.22-0.44,1.57-0.68c2.21-1.45,4.53-2.38,7.27-2.44
	c1.65-0.04,3.21-0.03,4.79,0.46c0.71,0.22,1.53,0.12,2.31,0.16c0.38,0.02,0.78-0.03,1.13,0.07c3.62,1.01,7.31,1.26,11.05,1.21
	c1.56-0.02,3.14-0.05,4.7,0.06c2.58,0.19,4.94,1.14,7.19,2.38c1.09,0.59,2.17,1.17,2.89,2.25c0.97,1.45,0.76,2.31-0.71,3.22
	c-1.61,1-3.37,0.89-5.13,0.78c-1.43-0.09-2.85-0.28-4.27-0.45c-0.51-0.06-1.05-0.15-1.52-0.35c-2.14-0.95-4.38-1.16-6.69-1.12
	c-1.01,0.02-2.07-0.2-3.03-0.53c-0.86-0.29-1.6-0.37-2.45-0.03c-1.35,0.54-2.76,0.58-4.22,0.65c-1.52,0.07-3.01,0.72-4.53,1
	c-1.74,0.32-3.1,1.33-4.52,2.25c-0.18,0.12-0.27,0.39-0.48,0.72c1.64,0.53,3.07,0.13,4.5-0.25c0.82-0.22,1.61-0.53,2.44-0.74
	c2.46-0.63,4.64-0.01,6.63,1.5c0.79,0.6,1.25,1.31,1.1,2.39c-1.43,2.56-4.15,1.95-6.42,2.54c-3.31,2.96-4.78,3.35-7.26,1.75
	c-0.71,0.37-1.59,0.68-2.28,1.23c-1.98,1.59-3.93,3.22-5.8,4.94c-0.6,0.55-0.99,1.38-1.31,2.16c-0.67,1.6-1.92,2.4-3.5,2.86
	c-0.68,0.2-1.33,0.49-1.99,0.75c-0.3,0.12-0.58,0.37-0.88,0.41c-1.68,0.18-3.08,0.97-4.46,1.88c-1.47,0.97-3.18,0.73-4.77,0.66
	c-2.2-0.09-4.41-0.42-6.59-0.82c-2.77-0.51-5.46-1.4-7.89-2.81c-1.67-0.97-3.33-2.08-4.31-3.88c-0.51-0.94-1.32-1.56-2.2-2.17
	c-3.09-2.11-6.46-3.67-9.81-5.27C75.73,161.79,74.15,161.04,72.43,160.23z"/>
</svg>
