<?xml version="1.0" encoding="utf-8"?>
<!-- Generator: Adobe Illustrator 23.0.0, SVG Export Plug-In . SVG Version: 6.00 Build 0)  -->
<svg version="1.1" xmlns="http://www.w3.org/2000/svg" xmlns:xlink="http://www.w3.org/1999/xlink" x="0px" y="0px"
	 viewBox="0 0 425.2 425.2" style="enable-background:new 0 0 425.2 425.2;" xml:space="preserve">
<style type="text/css">
	.st0{fill:#FDDE21;}
	.st1{fill:#FCD802;}
	.st2{fill:#FEE135;}
</style>
<g id="Warstwa_1">
</g>
<g id="czarne_-_EUSRA">
	<g>
		<path class="st0" d="M32.1,187.6c3.71,0,7.43-0.01,11.14-0.01c3.85,0.21,3.85,0.21,3.85,4.16c0,15.68-0.04,31.35,0.05,47.03
			c0.01,2.32-0.35,3.76-3.04,3.4c-3.74,0-7.49,0-11.23-0.01c-0.55-0.04-1.1-0.1-1.65-0.11c-4.8-0.08-4.8-0.08-4.8-4.76
			c0-15.35,0.07-30.7-0.06-46.05c-0.02-2.79,0.58-4.12,3.56-3.59C30.61,187.79,31.36,187.63,32.1,187.6z"/>
		<path class="st0" d="M194.42,384.11c-1.29,3.47-2.33,7.01-3.05,10.65c-1.82,4.93-1.82,4.93-6.91,3.49
			c-14.26-4.05-28.51-8.1-42.77-12.14c-3.86-1.09-3.86-1.08-3.05-4.97c0.07-0.36,0.08-0.73,0.12-1.1c1.35-3.48,2.3-7.08,3.08-10.73
			c1.66-3.98,1.66-3.99,5.89-2.79c14.42,4.09,28.84,8.18,43.26,12.27C195.09,379.96,195.08,379.97,194.42,384.11z"/>
		<path class="st0" d="M183.37,30.72c0.78,3.67,1.95,7.21,3.42,10.66c0.18,0.71,0.25,1.47,0.56,2.12c0.81,1.73,0.08,2.36-1.56,2.89
			c-15.09,4.81-30.16,9.69-45.24,14.55c-4.04,1.3-4.04,1.31-5.67-2.31c-0.82-3.72-1.98-7.33-3.47-10.84
			c-1.08-4.84-1.11-4.93,3.64-6.48c14.83-4.85,29.68-9.6,44.51-14.46c1.57-0.51,2.41-0.36,2.83,1.32
			C182.59,29.05,183.03,29.87,183.37,30.72z"/>
		<path class="st0" d="M346.21,340.91c-2.87-2.45-5.88-4.7-9.16-6.58c-0.54-0.5-1.01-1.13-1.64-1.46c-1.69-0.89-1.57-1.82-0.54-3.24
			c9.12-12.6,18.18-25.24,27.28-37.86c2.91-4.03,2.93-4.02,7.06-1.64c2.82,2.43,5.85,4.57,9.03,6.51c3.33,3.02,3.35,3.03,0.54,6.94
			c-8.84,12.33-17.75,24.61-26.47,37.02c-1.7,2.42-3,3.11-5.12,0.78C346.97,341.14,346.54,341.06,346.21,340.91z"/>
		<path class="st0" d="M334.77,87.68c3.21-1.95,6.14-4.26,9.01-6.66c4.02-2.54,4.01-2.54,6.89,1.31
			c9.13,12.22,18.21,24.48,27.46,36.62c1.7,2.23,1.85,3.63-0.74,4.94c-0.31,0.16-0.55,0.48-0.82,0.73c-3.1,2.1-6.28,4.09-8.89,6.82
			c-0.34,0.13-0.78,0.18-1.01,0.42c-2.29,2.42-3.6,1.23-5.23-0.99c-9-12.23-18.16-24.34-27.24-36.51
			C331.46,90.72,331.48,90.7,334.77,87.68z"/>
		<path class="st1" d="M118.03,302.87c-0.35,1.67-1.52,2.91-2.29,4.37c-0.52,1-0.89,2.17-0.08,2.8c2.11,1.65,1.08,3.38,0.4,5.07
			c-0.79,1.95-0.6,3.41,1.79,3.25c4.2-0.28,6.61,1.34,7.43,5.56c0.3,1.58,1.78,1.93,3.07,1.09c3.36-2.19,6.89-1.51,10.39-0.75
			c2.02,0.44,3.21-0.28,4.86-1.47c2.14-1.54,4.2-3.31,6.55-4.58c1.18-0.63,2-1.21,1.25-2.75c-0.39-0.81-0.51-1.83,0.24-2.6
			c2.62-2.69,5.05-5.62,9.05-6.41c1.34-0.26,2.61-0.85,3.92-1.27c2.28-0.72,3.35-2.16,3.48-4.66c0.23-4.53,1.71-5.29,5.82-3.32
			c1.4,0.67,2.78,1.4,4.17,2.11c-1.74,2.59-3.33,5.3-5.26,7.73c-1.5,1.89-1.74,3.75-0.9,5.84c1.13,2.81,2.25,5.61,3.91,8.19
			c5.39,8.38,12.78,14.54,21.22,19.63c5.9,3.56,12.13,5.4,19.06,4.81c5.56-0.48,11.14-0.79,16.71-1.18
			c1.63,0.06,1.96,2.42,3.91,2.14c0.63-0.09,1.36,0.26,1.33-0.65c-0.09-3.08,1.44-4.34,4.4-4.49c0.92-0.05,0.63-0.83,0.06-1.37
			c-0.93-0.87-2.04-1.6-2.59-2.83c-0.3-0.67-0.95-1.51-0.34-2.03c2-1.69,1.03-3.6,0.67-5.5c-0.14-0.71-0.43-1.61,0.41-1.98
			c0.67-0.29,1.06,0.51,1.49,0.96c1.94,2.05,2.25,1.93,3.19-0.79c0.43-1.26,1.74-1.42,2.74-1.08c2.14,0.73,4.57,0.88,6.2,2.77
			c1.12,1.3,2.62,1.05,3.83,0.48c2.45-1.16,4.8-0.85,7.22-0.12c3.65,1.57,7.36,2.08,11.02,0.17c3.01-1.56,6-3.18,8.86-5
			c4.7-2.99,9.36-6.05,13.4-9.95c1.14-0.02,1.59-0.81,1.94-1.72c0.85,0,1.17-0.8,1.77-1.15c1.87-1.09,2.96-3.22,5.18-3.82
			c0.48,0.94,0.89,1.59-0.53,2.4c-1.71,0.97-3.15,2.47-4.6,3.86c-1.17,1.12-0.61,2.44,0.5,2.98c2.73,1.32,4.31,3.7,6,5.98
			c0.92,1.25,2.21,1.9,3.57,2.82c-5.99,5.33-12.42,9.91-19.12,14.14c-3.81,2.4-7.43,5.33-11.56,6.91
			c-4.03,1.55-7.99,3.28-12.01,4.85c-20.12,7.88-41,11.45-62.55,10.27c-32.12-1.77-61-12.53-86.23-32.63
			c-28.24-22.5-46.14-51.52-53.71-86.77c-6.54-30.43-3.58-60.1,8.3-88.87c4.92-11.9,11.24-22.99,19.18-33.14
			c0.57,0.03,1.14,0.05,1.72,0.08c1.28,0.5,2.47,0.34,3.71-0.25c1.52-0.71,2.46,0.55,3.23,1.45c0.99,1.17-0.55,1.16-1.06,1.59
			c-1.58,1.37,1.22,1.51,0.59,2.79c-2.49-0.05-5.11-0.57-7.79,0.08c0.41,0.87,1.23,0.46,1.8,0.59c3.09,0.67,5.19,3.25,5.15,6.26
			c-0.02,1.6-1.4,1.1-2.11,1.62c-0.55,0.4-1.7-0.01-1.7,1.01c0,1.11,1.11,1.1,1.84,1.27c0.97,0.22,2,0.2,3,0.28
			c0.15,1.1-0.44,1.92-0.96,2.8c-1.78,3.01-3.6,5.99-5.25,9.07c-6.7,12.4-11.12,25.61-13.53,39.46c-0.6,3.45-1.55,6.96-1.16,11.14
			c1.83-3.11,3.29-5.66,4.82-8.17c8.85-14.56,18.92-28.19,30.37-40.83c3.65-4.03,7.69-7.67,11.19-11.82
			c1.41-0.52,2.95-0.81,3.03-2.84c0.04-0.9,1.06-0.79,1.69-1.07c1.5-0.65,2.6-1.62,2.68-3.39c0.62,0.03,0.99-0.39,1.42-0.74
			c4.83-3.95,9.52-8.07,14.54-11.79c17.73-13.17,36.67-24.14,57.44-31.8c4.86-1.79,9.76-3.49,15.28-5.46
			c-3.25-1.25-5.46-3.26-8.59-3.39c-7.28-0.32-14.55,0.15-21.71,1.27c-12.48,1.95-24.51,5.63-35.98,11
			c-14.31,6.69-26.99,15.69-38.14,26.86c-0.58,0.58-1.07,1.31-2.03,1.3c-2.31-1.07-3.29,0.3-3.94,2.54
			c-1.25-1.15-1.16-2.89-2.48-3.82c-1.33,1.4-1.04,4.52-1.46,4.45c-1.97-0.32-2.27,1.72-4.04,2.15c0.15-4.51,1.26-9.39-3.92-11.94
			c-0.13-0.2-0.26-0.41-0.39-0.61c22.13-24.66,49.32-40.78,81.77-47.44c41.61-8.55,80.22-0.76,115.47,22.94
			c23.69,15.93,41.14,37.24,52.95,63.18c2.64,5.79,4.77,11.78,6.65,17.86c0.1,0.33,0.04,0.7,0.06,1.11c-0.33-0.16-6.21,0.31-6.5,0.4
			c-2.11,0.68-4.11,1.52-6,2.74c-1.63,1.05-2.53,2.34-2.73,4.2c-1.75-2.55-1.92-5.66-2.99-8.45c2.99-0.08,5.72-0.73,8.29-2.51
			c6.67-4.61,4.09-13.1-0.83-16.73c-3.29-2.43-5.1-6.02-7.09-9.42c-1.18-2.03-2.61-3.78-4.42-5.25c-0.76-0.62-1.58-0.87-2.61-1.1
			c-4.57-0.99-8.33-3.42-11.23-7.22c0.38-0.27,0.5-0.44,0.64-0.45c0.99-0.09,1.8,2.03,2.75,0.51c0.63-1.01-0.82-1.62-1.46-2.33
			c-1.05-1.18-1.94-0.61-2.75,0.32c-0.35,0.41-0.62,0.89-0.97,1.41c-1.32-1.2-2.65-1.89-4.51-1.47c-0.79,0.18-2.79,0.99-1.89-1.76
			c0.3-0.92-1.85-2.64-2.83-4.32c2.43,1.07,4.6,0.76,6.8-0.41c1.06-0.56,1.37-1.09,0.93-2.13c-0.99-2.31-3.17-3.51-4.91-5.09
			c-0.77-0.7-1.57,0.27-2.22,1c-0.66,0.73-0.82,2.74-2.06,1.9c-0.64-0.43-0.65-2.7,0.17-3.84c0.69-0.95,2.17-1.61,0.57-2.78
			c-1.63-1.19-2.1,0.45-2.88,1.42c-1.24,1.54-2.17,3.42-4.32,4.3c-0.83-1.8,1-3.13,0.68-4.88c-2.9,1.13-3.94,4.19-6.41,5.58
			c-0.09-0.09-0.17-0.18-0.26-0.27c0.1-1.14,0.53-2.31,1.38-2.89c2.55-1.76,1.63-2.99-0.47-4.02c-1.16-0.57-2.32-0.83-2.66,1.12
			c-0.33,1.92-1.4,3.28-3.61,3.22c0.07-1.59-0.71-2.66-2.08-3.36c-0.08-0.16-0.13-0.33-0.15-0.5c-1.44-3.19-3.18-6.29-6.09-8.25
			c-5.87-3.97-12.31-6.93-18.82-9.69c-1.83-0.78-3.7-1.79-6.62-1.89c4.15,4.33,7.53,8.37,10.53,12.71
			c3.07,4.45,6.18,8.89,8.28,13.93c-1.78,0.23-1.99,1.91-2.89,3.35c-0.66-0.86,0.36-2.51-1.39-2.47c-1.26,0.03-1.45,0.87-1.72,1.74
			c-0.61,2-2.14,2.35-3.94,2.22c-0.08-0.07-0.15-0.13-0.23-0.19c-0.11-0.97,0.75-2.37-1.32-2.36c-2.41,0.01-2.74,1.69-3.03,3.43
			c-0.08,0.45,0.05,0.47,2.59-0.23c0.44-0.12,0.91-0.11,1.37-0.17c0.08,0.09,0.16,0.18,0.24,0.27c-0.92,1.14-2.21,1.95-2.25,3.75
			c-0.02,1.02-1.12,1.58-2.12,1.95c-3.5,1.31-5.46,4.56-8.32,6.69c-1.03,0.76-0.76,2.15-0.86,3.36c-2.2-0.68-3.67-0.41-4.7,1.9
			c-0.63,1.41-2.12,2.51-3.39,3.55c-1.17,0.95-1.73,2.38-2.63,3.32c-3.52,3.66-4.5,9.24-9.21,11.96c-0.54,0.31-0.67,1.27-1.09,1.85
			c-0.59,0.83-0.84,1.99-2.47,1.51c-1.11-0.33-5.92,4.76-5.83,5.99c0.06,0.88,0.2,1.93,1.59,1.69c0.42-0.07,0.98-0.32,1.11,0.33
			c0.14,0.71-0.5,0.97-1.02,1.05c-0.87,0.14-2.2,0.64-2.49-0.36c-0.76-2.54-2.08-1.22-3.35-0.75c-1.38,0.51-2.74,1.07-4.14,1.49
			c-1.39,0.42-2.27,1.96-4.25,1.39c1.35,2.47,1.17,3.06-1.58,3.49c-2.37,0.37-4.31,3-7.27,2.73c-0.17-0.02-0.58,1.27-0.67,1.97
			c-0.14,0.99,0.06,2.04-0.66,2.9c-1.41,0.31-2.4,1.29-3.46,2.16c-4.05,3.32-8.13,6.59-11.96,10.19
			c-7.78,7.3-16.03,14.11-22.71,22.52c-0.99-0.2-1.98-0.4-2.59-1.34c1.5-1.32,2.41-3.08,3.99-4.33c1.64-1.3,2.99-3.59,2.7-5.38
			c-0.28-1.75-3.14-1.23-4.78-1.94c-0.33-0.14-0.74-0.07-1.08-0.19c-0.6-0.21-1.65,0.39-1.74-0.67c-0.07-0.87,0.08-1.79,1.17-2.26
			c0.83-0.36,1.55-0.98,2.29-1.52c0.6-0.44,1.22-0.97,0.94-1.83c-0.25-0.75-1.03-0.66-1.64-0.76c-1.26-0.22-2.6,0.08-3.77-0.64
			c3.53-4.14,7.62-7.69,11.54-11.44c7.45-7.12,15.39-13.67,23.54-19.9c17.92-13.69,36.75-26,57.4-35.28
			c0.63-0.28,1.11-0.64,1.18-1.38c0.48-0.12,0.96-0.25,1.43-0.37c0.69,0.13,1.37,0.27,1.87-0.43c1.53-0.61,3.22-0.91,4.4-2.22
			c2.56,0.23,2.57-0.96,1.66-2.82c-1.46-2.98-3.15-5.81-5.07-8.53c-3.94-5.58-8.13-10.92-13.2-15.53c-0.58-0.52-0.96-1.2-2.08-0.87
			c-4.92,1.46-9.93,2.64-14.83,4.18c-13.57,4.28-26.41,10.23-38.85,17.12c-17.82,9.86-33.74,22.25-48.41,36.28
			c-8.05,7.7-15.35,16.13-22.14,24.95c-12.8,16.64-23.23,34.7-31.69,53.89c-0.8,1.83-2.3,3.51-1.76,5.93
			c1.8,7.99,3.88,15.88,7.09,23.44c1.88,4.44,3.82,8.86,6.32,13.04c0.41-0.27,0.62-0.33,0.7-0.47c7.58-13.05,15.8-25.7,24.81-37.81
			c2.51-3.37,4.61-7.09,7.93-9.81c1.2,0.1,1.89,1.31,3.5,1.24c-1.55,1.06-2.84,1.78-3.16,3.31c0.87,0.89,2-0.77,2.9,0.55
			c-0.7,0.6-1.64,0.09-2.26,0.41c-1.53,0.8-3.87,0.37-4.18,3.13c-0.19,1.68,2.08,0.31,1.7,1.85c-0.42,1.75,0.8,1.39,1.9,1.39
			c3.69,0,6.9-2.78,10.75-1.8c0.23,0.06,0.77-0.27,0.84-0.52c0.59-2.01,2.21-3.52,2.38-5.81c0.17-2.36-0.29-5.13,2.87-6.47
			c1.33-0.56,0.86-6.09-0.48-6.3c-2.55-0.38-4.68-2.6-7.47-1.7c2.34-4.93,6.27-8.52,10.22-12.09c0.66,0.04,1.33,0.32,1.98-0.06
			c0.06,0.29,0.12,0.57,0.17,0.86c-0.07,0.17-0.15,0.34-0.2,0.51c-0.34,1.27-3.78,2.75,0.32,3.76c0.69,0.17-0.09,1.14-0.29,1.68
			c-0.64,1.76-2.2,3.17-2.12,5.3c1.62-0.67,0.96-3.89,2.83-3.2c2.26,0.83,0.47,3.17,0.08,4.47c-1.21,3.99-1.43,3.92,2.85,4.57
			c0.27,0.04,0.55,0.09,0.82,0.13c0.04,0.51,0.07,1.03,0.11,1.54l0.01,0.01c-0.98-0.14-1.5,0.54-2.04,1.18
			c-6.5,7.72-12.86,15.54-18.86,23.67c-9.56,12.96-18.09,26.55-26.09,40.51c-1.42,2.48-1.65,4.31,0.55,6.29
			C113.15,297.77,114.54,301.38,118.03,302.87z M148.94,327.98c5.12,2.98,9.7,5.32,14.92,7.19c-1.05-2.55-2.62-4.26-3.58-6.27
			c-0.83-1.72-1.71-2.14-3.58-1.74C154.42,327.67,152.04,327.69,148.94,327.98z M248.36,356.63c-3.15-1.36-5.93-2.58-8.73-3.77
			c-0.48-0.21-0.92,0.02-1.13,0.49c-0.2,0.44,0.15,0.78,0.48,0.8C242.16,354.36,244.18,358.17,248.36,356.63z M165.03,315.01
			c-0.04-0.87-0.6-1.26-1.62-1.11c-0.64,0.1-1.52,0.21-1.27,1.01c0.25,0.79,0.9,1.68,1.91,1.65
			C164.71,316.54,165.19,315.98,165.03,315.01z M273.16,110.48c-0.75-0.08-0.81,0.43-0.83,0.86c-0.03,0.96,0.2,1.9,1.32,2.04
			c0.53,0.07,1.1-0.45,1.13-1.01C274.84,111.27,273.68,111.09,273.16,110.48z"/>
		<path class="st2" d="M118.03,302.87c-3.49-1.49-4.89-5.1-7.52-7.45c-2.21-1.98-1.97-3.81-0.55-6.29
			c8-13.96,16.53-27.56,26.09-40.51c6-8.13,12.36-15.95,18.86-23.67c0.54-0.64,1.05-1.31,2.04-1.18c-0.16,1.44-0.73,3.03,1.36,3.61
			c0.9,0.25,0.79,0.86,0.58,1.52c-0.64,2-0.95,4.08-4.05,3.75c-2.1-0.22-3.23,1-2.72,2.04c1.12,2.31,0.14,3.6-1.97,4.49
			c-1.06,0.45-2.85,0.3-3.04,1.5c-0.25,1.66,1.79,1.16,2.71,1.66c1.65,0.88,3,2.71,5.24,2.24c0.08,0.08,0.16,0.16,0.24,0.24
			c-0.21,1.08-1.02,1.24-1.89,1.14c-4.34-0.5-7.09,2.36-10.28,4.65c1.92,0.71,7.74-0.01,9.2-1.04c0.73-0.52,1.55-0.73,2.24-0.05
			c0.5,0.5,0.99,0.85,1.68,0.73c3.1-0.54,5.99,0.6,8.98,1c1.71,0.23,3.51,0.61,5.06-0.6c0.56-0.44,1.45-1.21,0.58-1.74
			c-2.42-1.49-0.53-2.22,0.47-2.81c1.2-0.7,1.83-1.78,2.56-2.82c0.6-0.85,1.19-1.86,0.33-2.76c-0.9-0.94-1.8-2.25-3.48-1.48
			c-0.71,0.32-1.38,0.44-2-0.27c0.43-0.67,1.26-1.37,1.21-2c-0.26-3.48,0-7.13-2.29-10.14c-1.04-1.37-1.92-2.89-1.77-4.53
			c0.24-2.56-0.87-4.41-2.37-6.2c6.68-8.41,14.93-15.22,22.71-22.52c3.83-3.6,7.91-6.87,11.96-10.19c1.06-0.87,2.05-1.85,3.46-2.16
			c-1.68,4.74-0.98,9.88-2.41,14.67c-0.22,0.75-0.15,1.81,0.91,2.02c3.46,0.69,1.05,2.29,0.17,2.6c-2.82,0.98-1.68,2.51-0.84,4
			c2.5,4.43,6.58,5.32,10.78,2.6c2.04-1.32,3.81-3.05,6.41-3.56c1.32-0.26,1.78-1.96,2.16-4.21c1.43,2.66,2.04,4.9,1.64,6.92
			c-0.71,3.64,0.98,7.13,0.18,10.76c-0.35,1.57,0.98,3.09,1.76,4.54c1.49,2.76-0.49,6.16-3.59,6.12c-2.37-0.03-3.98,1.88-3.64,4.31
			c-1.02,0.53-1.47,1.33-1.17,2.48l0.04-0.04c-1.53,0.35-2.88,1.05-4.03,2.13c-0.75-2.33-2.31-4.53-1.18-7.17
			c0.29-0.67,0.54-1.67,1.05-1.86c3.61-1.36,3.33-4.63,3.94-7.51c0.4-1.87-1.23-2.6-2.14-3.13c-1.36-0.79-3.23-0.75-4.69,0.33
			c-1.37,1.02-1.95,2.51-2.59,4.1c-1.65,4.09,0.9,7.86,0.56,11.83c-0.14,1.66-0.09,3.52-0.79,4.84c-0.78,1.47-1.6,3.71-4.6,2.49
			c-2.83-1.15-6,0.53-9.09,0.08c-0.8-0.12-1.39,1.26-1.39,2.4c0,1,0.09,2.52-0.91,2.67c-1.49,0.22-0.29-1.71-1.48-2.46
			c-1.25,1.93-3.62,3.24-2.88,6.17c0.21,0.84-0.35,1.04-0.87,1c-3.13-0.29-5.78,1.81-8.86,1.71c-0.84-0.03-1.65-0.06-1.79,1.16
			c-0.28,2.44-2.01,3.52-4.11,4.35c-1.25,0.49-2.37,0.93-3.37,2.32c-0.95,1.32-3.42,0.71-4.94-0.65c-0.47-0.42-0.73-1.06-1.13-1.56
			c-0.39-0.49-0.76-1.2-1.52-0.89c-0.64,0.26-0.31,0.96-0.35,1.47c-0.04,0.46,0.08,0.93,0,1.38c-0.17,1.01,0.69,2.46-0.6,2.94
			c-1.17,0.44-2.77,0.27-3.65-0.72c-2.19-2.46-4.65-0.76-6.99-0.7c-0.99,0.03-1.05,0.95-0.78,1.69c0.41,1.12,0.81,2.29,2.01,2.85
			c1.96,0.91,3.31,2.63,5.08,3.78c0.78,0.51,1.12,1.1,1.15,2.03c0.02,0.91-0.08,2.12,0.43,2.67c3.03,3.24,0.99,6.66,0.44,9.95
			c-0.39,2.34-1.34,4.58-2.04,6.87c-0.56,1.8-1.67,2.16-3.41,1.51c-3.7-1.39-7.49-2.55-11.15-4.02c-3.43-1.38-7.14-1.51-10.63-2.76
			c-1.9-0.67-3.99,1.34-6.05,1.99c-0.67,0.21-0.04,1.11,0,1.7C120.99,293.99,121.42,298.82,118.03,302.87z M213.38,231.23
			c0.24-1.72-0.63-2.25-1.88-2.34c-0.95-0.07-1.62,0.26-1.5,1.42c0.17,1.56,1.51,2.25,2.59,2.52
			C213.64,233.09,213.22,231.66,213.38,231.23z"/>
		<path class="st2" d="M118.24,119.57c0.96,0.01,1.45-0.72,2.03-1.3c11.15-11.17,23.84-20.17,38.14-26.86
			c11.47-5.37,23.5-9.05,35.98-11c7.15-1.12,14.42-1.59,21.71-1.27c3.12,0.14,5.34,2.14,8.59,3.39c-5.52,1.97-10.42,3.66-15.28,5.46
			c-20.77,7.66-39.71,18.63-57.44,31.8c-5.02,3.73-9.7,7.85-14.54,11.79c-0.43,0.35-0.8,0.77-1.42,0.74
			c-0.74-0.18-0.81-0.73-0.55-1.27c0.63-1.34,0.18-2.04-1.01-2.91c-2.42-1.77-2.55-5.5-0.48-7.53c-0.46-0.76-0.95-0.19-1.36,0.02
			c-1.43,0.73-2.54,0.92-2.96-1.14c-0.12-0.59-0.48-1.48-1.48-1.33c-0.87,0.13-1.17,0.71-1.23,1.55c-0.09,1.32-0.92,1.94-2.03,1.25
			c-0.93-0.57-1.32-0.72-2.22,0.13c-0.98,0.92-1.51-1.05-2.51-0.91c-0.97,0.79,0.05,2.27-1.16,2.98
			C118.17,122.09,118.3,120.81,118.24,119.57z"/>
		<path class="st2" d="M232.84,344.35c-5.57,0.39-11.15,0.7-16.71,1.18c-6.93,0.59-13.15-1.25-19.06-4.81
			c-8.45-5.09-15.84-11.25-21.22-19.63c-1.65-2.58-2.78-5.38-3.91-8.19c-0.84-2.09-0.6-3.95,0.9-5.84c1.93-2.43,3.52-5.14,5.26-7.73
			c1.56,0.91,2.94,0.94,4.59-0.15c2.4-1.58,5.79-1.25,7.74-3.88c0.34-0.46,1.03-0.16,1.5,0.2c2.17,1.67,4.67,3.05,4.34,6.48
			c-0.18,1.83,0.98,3.34,1.89,4.82c1.4,2.27,2.96,4.44,4.46,6.65c0.78,1.14,1.5,2.33,3.08,2.53c0.97,0.12,1.32,0.9,1.53,1.75
			c0.25,1,0.96,1.62,1.9,1.8c1.06,0.2,1.66,0.56,1.57,1.78c-0.03,0.5,0.18,1.21,0.54,1.51c3.54,2.93,2.45,6.13,0.66,9.41
			c-0.29,0.53-0.73,1.11-0.11,1.96c2.32-1.13,4.01-3.13,6.04-4.65c0.87-0.65,0.41-1.7-0.29-2.44c-1.93-2.05,0.06-3.25,1.17-4.31
			c1.29-1.23,1.72,0.69,2.5,1.2c0.75,0.5,1.33,1.26,1.98,1.91c1.58,3.04,4.12,4.86,7.36,5.79c0.73,0.87,2.26,1.24,1.25,3.07
			c-0.54,0.98,0.66,1.57,1.67,2.04c1.72,0.8,3.86,0.56,5.3,2.18c-2.1,2.17-4.24,3.12-6.72,0.19
			C231.33,341.31,233.58,342.6,232.84,344.35z M199.79,330.92c-0.58-0.19-1.1-0.23-1.3,0.52c-0.2,0.75-0.11,1.47,0.52,2.01
			c2.15,1.82,4.3,3.65,6.49,5.43c0.64,0.52,1.7,1.1,2.13,0.13c0.82-1.87,1.09-3.95,2.26-5.73c0.34-0.52-0.75-0.8-1.15-0.77
			C205.63,332.7,202.72,331.78,199.79,330.92z M190.4,315.07c-0.02-0.92-0.09-2.57-1.52-2.41c-1.25,0.14-3.67,0.21-3.61,1.76
			c0.07,2.09-0.15,3.93-0.97,5.78c-0.53,1.18,0.08,2.13,0.65,3.07c0.25,0.42,0.72,0.71,1.15,0.36c1.39-1.14,3.54-1.55,3.71-3.9
			C189.92,318.26,190.17,316.82,190.4,315.07z M188.01,307.1c-0.06,1.42,0.2,2.57,0.96,3.54c0.32,0.41,0.84,0.36,1.17-0.1
			c1.18-1.67,2.25-3.4,2-5.58c-0.05-0.48-0.2-1.01-0.81-0.79C189.79,304.74,187.56,304.61,188.01,307.1z"/>
		<path class="st1" d="M210.05,236.4c1.15-1.07,2.5-1.78,4.03-2.13c0.09,0.26,0.16,0.52,0.28,0.77c0.63,1.34,1.87,0.8,2.89,0.9
			c0.14,0.01,0.47-0.35,0.45-0.5c-0.19-1.56-1.61,0.08-2.16-0.81c-0.3-0.48-0.93-0.49-1.5-0.31c-0.3-1.15,0.14-1.95,1.17-2.48
			c0.69,0.95,1.73,1.41,2.77,1.7c1.19,0.34,2.46,0.35,1.66-1.53c-0.42-0.98-0.2-1.69,0.71-2.01c0.87-0.31,1.47-0.02,1.8,1.06
			c0.46,1.53,1.94,1.77,3.29,1.94c1.54,0.19,1.41-1.13,1.65-2.04c0.58-2.19,2.33-2.33,3.95-1.89c2.54,0.69,3.84-0.32,5.03-2.44
			c2.33-4.14,4.06-8.48,4.53-13.19c0.13-1.25,0.31-1.53,1.37-1.64c2.33-0.26,4.26-1.43,6.76-2.91c-2.64-0.3-4.51-0.88-5.94-2.98
			c3.21,0.54,6.7,3.35,8.54-1.5c1.82,0.01,3.77-3.06,5.62,0.68c-0.47-4.39,2.7-5.13,5.31-6.38c0.33-0.16,0.66-0.31,1-0.46
			c0.59,5.93,6.6,10.4,12.36,9.25c3.79-0.76,7.56-1.48,11.45-0.39c0.96,0.27,2.12-0.2,3.19-0.32c0.47,2.52-0.89,2.73,5.89,6.39
			c-2.38,0.3-4.41,0.36-6.37,1.02c-1.08,0.36-2.15-0.1-3.26,1.14c-0.93,1.05-2.88,0.08-4.03-0.79c-3.3-2.49-6.89-2.13-10.55-1.38
			c-1.37,0.28-2.67,0.74-3.2,2.25c-0.85,0.16-1.69,0.32-2.54,0.48c-0.38-0.86-0.43-2.14-1.94-1.61c-0.56,0.19-0.84,0.48-0.61,1.22
			c0.46,1.44,1.39,0.74,2.21,0.61c-0.25,0.4-0.49,0.8-0.74,1.2c-1.75,0.18-4.13-0.65-4.02,2.51c-6.96,3.54-13.01,8.45-19.36,12.9
			c-1.55,1.09-1.53,2.2-0.12,3.57c2.1,2.04,4.28,3.97,6.64,5.7c-0.59,2-2.38,2.07-3.95,2.43c-1.24,0.28-1.35-0.84-1.45-1.55
			c-0.41-2.89-2.43-3.67-4.55-2.62c-4.29,2.13-9.36,1.07-13.47,3.67c-0.86,0.54-1.32-0.35-1.75-0.87c-2.45-2.96-5.06-5.02-9.12-2.57
			c-0.8,0.48-2.52,0.72-1.79-1.58C212.64,237.39,210.54,237.44,210.05,236.4z M244.77,224.91c2.29-0.63,3.18-2.46,3.63-4.54
			c0.15-0.69-0.74-0.81-1.19-0.57c-1.9,1.02-3.03,2.53-2.68,4.83C244.55,224.7,244.64,224.76,244.77,224.91z"/>
		<path class="st2" d="M128.62,139.63c-3.5,4.15-7.54,7.79-11.19,11.82c-11.45,12.64-21.52,26.27-30.37,40.83
			c-1.53,2.51-2.99,5.06-4.82,8.17c-0.39-4.18,0.56-7.68,1.16-11.14c2.41-13.85,6.83-27.06,13.53-39.46
			c1.66-3.07,3.48-6.06,5.25-9.07c0.52-0.88,1.11-1.71,0.96-2.8c1.29-0.11,1.57,1.05,2.26,1.75c2.43,2.46,5.13,4.34,8.82,4.19
			c0.97-0.04,1.79-0.35,2.61-0.77c1.62-0.83,3.16-1.69,5.18-1.39c2.04,0.3,3.45-1.32,4.68-2.58
			C127.95,137.9,128.12,138.91,128.62,139.63z"/>
		<path class="st2" d="M298.61,315.09c-4.04,3.89-8.7,6.95-13.4,9.95c-2.86,1.82-5.85,3.44-8.86,5c-3.66,1.9-7.37,1.4-11.02-0.17
			c-0.28-0.57-0.51-1.19-0.86-1.71c-3.61-5.43-2.29-6.88,1.9-11.09c2.33-2.34,4.69-5.22,6.5-7.99c1.91-2.93,3.93-5.12,6.85-6.75
			c2.25-1.26,3.84-0.36,4.18,2.21c0.23,1.74,1.85,1.82,3.21,2.07c1.15,0.21,2.62-0.33,3.27,1.25c-0.65,0.83-1.45,0.4-2.12,0.51
			c-1.8,0.31-2.78,0.8-1.17,2.67c0.78,0.91,1.17,2.08,0.8,3.37c-0.47,1.62,0.66,1.89,1.68,1.51c1.74-0.65,3.66-0.55,5.3-1.27
			C296.36,313.98,297.46,314.1,298.61,315.09z"/>
		<path class="st2" d="M263.25,198.23c-0.33,0.15-0.67,0.31-1,0.46c-2.61,1.25-5.78,1.98-5.31,6.38c-1.85-3.74-3.8-0.67-5.62-0.68
			c-0.5-1.48-1.06-2.94-1.49-4.43c-0.49-1.69-1.33-2.04-2.8-1.03c-1.06,0.72-2.19,1.34-3.8,1.24c4.55-1.73,4.23-5.65,4.47-9.29
			c0.09-1.33,0.74-2.42,1.13-3.63c1.41-4.33,4.36-7.2,8.07-9.55c1.65-1.05,3.29-1.98,5.2-2.45c4.81-1.2,7.41-4.45,8.45-9.37
			c0.45-2.13,2-4.02,3.05-6.02c0.92,5.66,0.55,11.41,1.24,17.08c-1.76,2.47-4.77,3.1-7.1,4.74c-1.48,1.04-2.41,2.16-2.51,3.97
			c-0.08,1.46-0.47,2.94-0.32,4.37C265.23,192.98,264.41,195.62,263.25,198.23z"/>
		<path class="st1" d="M230.56,331.69c-3.24-0.93-5.78-2.76-7.36-5.79c1.66-1.38,0.09-2.31-0.62-3.07c-1.12-1.2-2.49-2.18-3.83-3.14
			c-1.08-0.78-1.95-1.66-2.39-2.93c-0.45-1.29-1.39-2.09-2.56-2.75c-2.88-1.62-4.41-4.13-4.35-7.45c0.03-1.52-0.36-2.74-1.61-3.57
			c-3.81-2.55-2.71-6.37-2.15-9.73c0.3-1.79,2.82-1.34,4.32-1.34c1.68,0,0.77,1.42,0.64,2.32c-0.11,0.76-0.08,1.53,0.64,1.97
			c0.77,0.47,1.15-0.21,1.54-0.7c0.64-0.8,1.23-0.73,1.67,0.15c0.8,1.61,2.1,3.03,1.64,5.1c-0.56,2.55,0.92,4.49,2.87,5.44
			c2.21,1.08,3.66,2.64,5.01,4.52c1.07,1.49,2.08,3.1,3.44,4.31c2.39,2.12,2.11,4.73,1.11,7.03c-0.93,2.13-0.79,3.68,0.37,5.54
			C229.69,328.83,230.03,330.32,230.56,331.69z"/>
		<path class="st2" d="M290.45,107.4c1.37,0.71,2.15,1.77,2.08,3.36c-1.08,1.14-2.94,1.58-2.86,3.61c-1.08-0.4-0.72-1.46-1.32-1.66
			c-1.44-0.49-2.83-2.03-4.3-1.34c-1.34,0.63,0.59,2.12-0.17,3.41c-2.9-1.87-4.34,0.67-6.17,2.18c-0.12-0.12-0.24-0.24-0.36-0.35
			c0-0.98,0.61-1.91,0.23-2.92c-2.1-5.04-5.2-9.48-8.28-13.93c-2.99-4.34-6.38-8.38-10.53-12.71c2.92,0.1,4.79,1.11,6.62,1.89
			c6.5,2.76,12.95,5.72,18.82,9.69c2.9,1.97,4.65,5.07,6.09,8.25c-1.08,0.24-2.4-0.82-3.23,0.59c-0.1,0.16,0.02,0.65,0.17,0.72
			C288.52,108.86,289.5,108.15,290.45,107.4z"/>
		<path class="st1" d="M340.64,182.78c-2.15-1.97-5.36-2.35-6.95-5.36c-1.04-1.97-2.39-0.09-3.01,0.97
			c-0.92,1.57,0.13,3.96,1.98,4.54c2.21,0.69,1.24,2.6,1.71,3.93c0.17,0.48,0.58,1.27-0.49,1.52c-1.29,0.3-2.39,0.35-3.58-0.6
			c-1.59-1.27-3.28-2.37-4.13-4.34c-0.3-0.71-0.82-1.07-1.61-1.32c-1.33-0.43-2.29-1.69-2-2.94c0.8-3.38-0.61-7.02,1.57-10.26
			c1.24-1.85,0.37-3.54-1.07-5.4c-2.01-2.6-5.12-4.69-5.2-8.53c-0.02-0.71-0.51-1.65,0.34-1.96c0.97-0.36,1.2,0.74,1.36,1.34
			c0.64,2.47,2.02,4.03,4.64,4.44c1.87,0.29,2.22,2.43,3.9,3.26c3.61,1.79,6.95,4.12,10.4,6.22c-0.07,2.32,1.04,4.41,1.32,6.65
			C340.15,177.55,341.57,180.05,340.64,182.78z"/>
		<path class="st2" d="M266.2,215.88c0.85-0.16,1.69-0.32,2.54-0.48c-0.03,0.8,0.24,1.61-0.34,2.37c-1.23,1.59-0.42,2.75,1.16,3.01
			c1.7,0.28,1.37,1.22,1.09,2.16c-0.58,1.94-1.27,3.84-1.98,5.74c-0.28,0.76-0.59,1.65-1.65,1.58c-1.01-0.06-1.68-0.69-2.08-1.58
			c-0.15-0.33-0.2-0.71-0.34-1.05c-1.65-3.96-4.62-4.32-7.44-0.95c-2.36,2.83-2.14,6.36-2.74,9.67c-0.16,0.9-0.12,1.84-0.22,2.75
			c-0.33,2.95-0.99,3.44-3.87,2.69c-0.77-0.2-1.41-0.29-2.06,0.19c-2.36-1.73-4.53-3.67-6.64-5.7c-1.41-1.37-1.43-2.48,0.12-3.57
			c6.36-4.45,12.4-9.36,19.36-12.9c0.7-0.12-0.07,2.21,1.45,0.83c0.49-0.45,1.27-0.67,1.96-0.81c2.16-0.41,2.17-1.27,0.61-2.54
			c0.25-0.4,0.49-0.8,0.74-1.2C265.91,215.93,266.02,215.85,266.2,215.88z"/>
		<path class="st1" d="M274.85,176.95c-0.68-5.67-0.32-11.42-1.24-17.08c0.13-0.12,0.29-0.22,0.4-0.36c2.97-3.94,6.48-2.02,9.81-0.8
			c2.81,1.03,4.55,6.23,3.26,9.07c-0.19,0.42-0.33,1.05-0.86,0.77c-2.28-1.22-2.79,0.87-3.86,1.96
			C280.04,172.86,277.54,175.01,274.85,176.95z"/>
		<path class="st2" d="M307.5,308.41c-2.22,0.6-3.31,2.73-5.18,3.82c-0.6,0.35-0.93,1.15-1.77,1.15c-3.73,0.13-5.92-2.29-8.06-4.82
			c-0.31-0.37-0.56-0.76-0.41-1.24c0.21-0.68,0.8-0.67,1.36-0.64c5.64,0.29,10.96-2.29,16.63-1.86c1.12,0.08,2.2-0.28,2.86,1.18
			c-1.55,0.66-2.9,1.8-4.78,1.47C307.42,307.34,307.63,308.02,307.5,308.41z"/>
		<path class="st2" d="M340.64,182.78c0.93-2.73-0.49-5.23-0.81-7.84c-0.28-2.24-1.39-4.33-1.32-6.65c0.73,0.19,1.46,0.39,2.19,0.58
			c1.07,2.79,1.24,5.9,2.99,8.45c0.58,0.83,0.9,1.76,1.08,2.76c0.28,1.49,1.27,3.82,0.4,4.31
			C343.8,185.15,341.99,183.88,340.64,182.78z"/>
		<path class="st0" d="M102.01,112.33c0.13,0.2,0.26,0.41,0.39,0.61c0.28,1.71,0.56,3.43,0.87,5.32
			C99.42,116.1,99.26,115.17,102.01,112.33z"/>
		<path class="st2" d="M97.1,119.08c-0.08-0.71-0.27-1.64,0.89-1.28c0.44,0.14,1.34,0.78,1.02,1.43c-0.67,1.38-1.28-0.19-1.96-0.2
			C97.06,119.03,97.1,119.08,97.1,119.08z"/>
		<path class="st2" d="M96.47,121.29c-0.57-0.03-1.14-0.05-1.72-0.08c0.86-0.62,0.87-2.18,2.34-2.12c0,0-0.05-0.05-0.05-0.05
			C97.41,119.93,96.44,120.48,96.47,121.29z"/>
		<path class="st1" d="M261.4,127.06c0.96-0.2,1.55-0.02,2.14,0.6C262.71,128.25,262.12,128.08,261.4,127.06z"/>
		<path class="st1" d="M267.65,118.53c-0.13,0.25-0.26,0.5-0.39,0.74c-0.08-0.09-0.16-0.18-0.24-0.26c0.13-0.22,0.26-0.45,0.4-0.67
			C267.49,118.4,267.57,118.46,267.65,118.53z"/>
		<path class="st2" d="M277.71,116.97c-0.17,0.1-0.34,0.19-0.51,0.29c0.05-0.21,0.1-0.43,0.15-0.64
			C277.47,116.73,277.59,116.85,277.71,116.97z"/>
		<path class="st1" d="M298.16,113.61c-0.08,0.23-0.17,0.48-0.48,0.3c-0.03-0.02,0.14-0.37,0.22-0.56
			C297.98,113.43,298.07,113.52,298.16,113.61z"/>
		<path class="st2" d="M130.86,227.02c-3.32,2.72-5.42,6.44-7.93,9.81c-9.02,12.11-17.23,24.75-24.81,37.81
			c-0.08,0.13-0.28,0.2-0.7,0.47c-2.49-4.18-4.43-8.6-6.32-13.04c-3.21-7.56-5.29-15.45-7.09-23.44c-0.54-2.41,0.95-4.1,1.76-5.93
			c8.46-19.19,18.9-37.26,31.69-53.89c6.79-8.82,14.09-17.25,22.14-24.95c14.67-14.03,30.59-26.42,48.41-36.28
			c12.44-6.89,25.28-12.84,38.85-17.12c4.9-1.54,9.91-2.72,14.83-4.18c1.12-0.33,1.5,0.34,2.08,0.87c5.07,4.61,9.25,9.96,13.2,15.53
			c1.92,2.72,3.61,5.55,5.07,8.53c0.91,1.86,0.9,3.06-1.66,2.82c0.81-2.64-3.17-0.94-2.61-3.07c-1.54,0.38-0.75,2.99-2.93,2.55
			c0.19-0.9,1.49-1.76,0.54-2.65c-0.7-0.66-1.91-0.32-2.36,0.55c-1.1,2.1,1.18,1.42,1.86,2.08c0.33,1.94-1.21,1.47-2.2,1.71
			c-0.75,0.19-1.86,0.2-1.79,1.18c0.06,0.87,1.31,0.05,1.79,0.67c-0.07,0.74-0.55,1.09-1.18,1.38
			c-20.66,9.28-39.48,21.59-57.4,35.28c-8.16,6.23-16.09,12.78-23.54,19.9c-3.92,3.75-8.01,7.3-11.54,11.44
			c-0.61,0.02-1.45-0.27-1.7,0.47c-1.04,3.06-5.94,4.32-4.08,8.75c0.05,0.13-0.46,0.49-0.7,0.75c-0.06-0.29-0.12-0.57-0.17-0.86
			c-0.55-0.55-0.77-1.22-0.85-1.98c-0.09-0.87-0.48-1.39-1.47-0.98c-0.83,0.35-0.78,0.87-0.38,1.53c0.28,0.47,0.48,0.99,0.72,1.49
			c-3.95,3.57-7.88,7.16-10.22,12.09c-0.69,1.22-3.44,1.77-1.27,3.96c0.25,0.25-0.32,0.54-0.56,0.8c-1.17,1.28-2.4,0.93-3.72,0.26
			c-1.4-0.71-3.15-0.34-2.71,1.19c0.46,1.64,0.02,2.12-1.06,2.83C130.07,225.84,130.56,226.46,130.86,227.02z M152.28,195.29
			c-1.74,0.39-3.92,0.37-3.34,3.18C150.79,198.12,151.68,196.86,152.28,195.29z M244.51,128.65c1.22-1.17,3.03-0.39,4.25-1.35
			c0.32-0.26,0.93-0.37,0.77-0.93c-0.08-0.28-0.62-0.7-0.76-0.63C247.22,126.48,245,126.2,244.51,128.65z"/>
		<path class="st2" d="M148.94,327.98c3.09-0.3,5.48-0.32,7.76-0.81c1.87-0.41,2.75,0.01,3.58,1.74c0.97,2.02,2.54,3.72,3.58,6.27
			C158.64,333.3,154.07,330.96,148.94,327.98z"/>
		<path class="st2" d="M156.83,222.22c0.42-0.15,1.11-0.49,1.22-0.08c0.2,0.75-0.57,1.18-1.11,1.62
			C156.9,223.25,156.87,222.74,156.83,222.22z"/>
		<path class="st2" d="M254.12,126.67c0.55-0.47,0.96-1.53,1.87-0.43C255.49,126.94,254.81,126.81,254.12,126.67z"/>
		<path class="st2" d="M155.07,244.59c0.16-0.21,0.32-0.42,0.55-0.09c0.02,0.03-0.2,0.22-0.31,0.33
			C155.22,244.75,155.14,244.67,155.07,244.59z"/>
	</g>
	<g>
		<path d="M242.05,162.63c1.28,0,2.26,0,3.23,0c9.73-0.02,19.46-0.14,29.19-0.01c6.04,0.08,10.84,2.57,13.23,8.45
			c0.88,2.17,1.56,4.47,1.94,6.78c1.1,6.78,1.37,13.61,0.27,20.41c-0.83,5.11-3.11,9.32-8.42,11.68c6.39,2.19,7.6,7.36,7.67,12.83
			c0.15,12.62-0.01,25.25-0.05,37.87c0,0.31-0.06,0.63-0.1,1.06c-6.43,0-12.77,0-19.32,0c0-0.87,0-1.64,0-2.41
			c0-9.07,0.02-18.15-0.01-27.22c-0.01-3.68-0.11-7.36-0.22-11.04c-0.09-2.97-3.75-5.38-6.42-4.12c-0.52,0.25-0.82,1.41-0.85,2.16
			c-0.1,2.62-0.04,5.25-0.04,7.87c0,10.78,0,21.57,0,32.35c0,0.78,0,1.55,0,2.42c-6.76,0-13.3,0-20.09,0
			C242.05,228.72,242.05,195.82,242.05,162.63z M262.39,180.93c0,5.94-0.01,11.51,0.03,17.09c0,0.36,0.32,0.87,0.63,1.05
			c2.75,1.51,7.01-0.06,7.37-3.14c0.47-3.99,0.29-8.09,0.12-12.12c-0.04-0.84-1.13-2.15-1.96-2.35
			C266.65,181,264.59,181.08,262.39,180.93z"/>
		<path d="M181.07,162.52c0.07,0.73,0.16,1.24,0.16,1.75c-0.03,24.66-0.03,49.32-0.14,73.98c-0.03,5.95-1.5,11.56-5.09,16.49
			c-3.46,4.75-8.36,6.9-13.93,7.66c-4.84,0.66-9.65,0.41-14.44-0.94c-7.72-2.19-11.84-7.71-13.53-14.98
			c-1.07-4.6-1.24-9.48-1.28-14.25c-0.13-20.18-0.06-40.36-0.06-60.55c0-2.95,0-5.9,0-9c6.5,0,12.84,0,19.41,0
			c0.03,0.62,0.09,1.25,0.09,1.88c0.01,13.08,0.02,26.17,0.03,39.25c0,11.03-0.01,22.06,0.02,33.09c0,1.24,0.15,2.5,0.4,3.71
			c0.54,2.65,1.94,3.8,4.45,3.83c2.23,0.02,3.59-1.07,4.05-3.73c0.39-2.25,0.56-4.57,0.57-6.86c0.06-9.72,0.04-19.45,0.02-29.17
			c-0.03-13.27-0.05-26.54-0.17-39.81c-0.02-1.93,0.56-2.44,2.44-2.39c5,0.12,10,0.04,14.99,0.04
			C179.71,162.52,180.35,162.52,181.07,162.52z"/>
		<path d="M347.15,261.75c-6.32,0-12.42,0-18.76,0c-0.47-5.21-0.95-10.41-1.45-15.96c-1.97,0-3.91,0-5.85,0c-1.05,0-2.1,0-3.16,0
			c-2.97,0-2.96,0-3.18,3.03c-0.31,4.25-0.65,8.51-0.98,12.88c-6.4,0-12.67,0-19.27,0c3.19-33,6.37-65.93,9.57-99.07
			c11.22,0,22.3,0,33.72,0C340.91,195.67,344.02,228.6,347.15,261.75z M321.1,179.61c-0.31-0.01-0.62-0.03-0.93-0.04
			c-1.23,16.73-2.46,33.47-3.69,50.28c3.12,0,5.97,0,8.98,0C323.99,212.99,322.54,196.3,321.1,179.61z"/>
		<path d="M206.3,224.62c0,4.04-0.04,7.77,0.02,11.5c0.03,1.57,0.11,3.17,0.44,4.69c0.6,2.72,2.29,3.83,5.02,3.6
			c2.38-0.2,3.53-1.67,3.83-4.42c0.98-9.12-3.11-15.83-9.64-21.71c-4.58-4.12-9.06-8.48-12.91-13.27
			c-7.99-9.96-8.11-21.06-3.39-32.49c0.62-1.49,1.7-2.8,2.88-4.69c-2.03-1.71-4.23-3.55-6.43-5.4c0.14-0.21,0.27-0.42,0.41-0.63
			c0.39-0.09,0.78-0.24,1.18-0.25c7.96-0.05,15.92-0.24,23.87-0.05c4.65,0.11,9.22,0.9,13.29,3.64c3.47,2.33,5.88,5.4,7.37,9.22
			c2.06,5.28,2.68,10.79,2.52,16.55c-6.7,0-13.3,0-20.19,0c0-2.16,0.03-4.24-0.01-6.33c-0.06-3.24-1.59-4.79-4.52-4.66
			c-2.87,0.13-4.33,1.89-4.19,5.01c0.13,2.99,1.48,5.48,3.49,7.52c4.29,4.35,8.7,8.58,13.08,12.84
			c5.38,5.23,10.21,10.77,12.01,18.37c2.23,9.39,1.38,18.54-2.1,27.43c-2.17,5.53-6.26,9.26-12.11,10.62
			c-6.99,1.63-13.97,1.5-20.73-1.18c-5.27-2.08-8.66-5.97-10.55-11.28c-2.24-6.26-2.28-12.76-2.28-19.27c0-5.38,0-5.38,5.3-5.38
			C196.65,224.62,201.37,224.62,206.3,224.62z"/>
		<path d="M106.85,200.9c6.18,0,12.21,0,18.37,0c0.09,0.67,0.21,1.17,0.21,1.66c0.01,5.2-0.04,10.39,0.04,15.59
			c0.02,1.44-0.53,1.78-1.85,1.77c-5-0.05-10-0.03-14.99-0.01c-0.79,0-1.87-0.3-1.87,1.07c-0.01,7.03-0.01,14.06-0.01,21.29
			c6.9,0,13.64,0,20.58,0c0,6.59,0,12.99,0,19.59c-13.63,0-27.25,0-41.12,0c0-0.86,0-1.63,0-2.41c0-31.44,0-62.87,0-94.31
			c0-2.76,0-2.75,2.81-2.75c11.44,0,22.88,0,34.32,0.01c0.91,0,1.81,0.09,2.83,0.14c0,6.43,0,12.71,0,19.17
			c-0.8,0.04-1.5,0.1-2.19,0.11c-5,0.05-9.99,0.14-14.99,0.11c-1.57-0.01-2.22,0.39-2.19,2.09c0.07,4.86-0.03,9.73-0.05,14.6
			C106.72,199.31,106.8,200.02,106.85,200.9z"/>
		<path d="M142,369.89c-1.01,3.59-1.97,6.98-3.02,10.71c-20.31-9.1-38.18-21.44-53.82-36.97c-28.22-28.04-45.79-61.65-52.53-101.27
			c3.65,0,7.15-0.04,10.65,0.07c0.3,0.01,0.73,0.94,0.83,1.5c2.22,11.71,5.42,23.13,10,34.15c12.32,29.64,31.37,54.05,57.02,73.33
			c8.85,6.66,18.3,12.31,28.24,17.18C140.19,368.98,141.01,369.4,142,369.89z"/>
		<path d="M378.27,297.22c-2.7-1.94-5.21-3.73-7.7-5.53c-0.42-0.3-0.81-0.66-1.32-1.08c12.61-25.12,18.84-51.74,18.55-79.82
			c-0.3-28.07-6.97-54.59-20.12-79.62c2.92-2.18,5.85-4.36,8.95-6.67c15.79,29.37,23.08,60.56,22.15,93.61
			C398,245.95,391.14,272.3,378.27,297.22z"/>
		<path d="M131.58,47.69c1.11,3.44,2.05,6.57,3.15,9.65c0.46,1.28-0.42,1.48-1.13,1.86c-8.52,4.47-16.57,9.66-24.19,15.53
			c-15.5,11.93-28.72,26.01-39.53,42.33c-12.74,19.24-21.24,40.22-25.57,62.89c-0.5,2.64-0.92,5.3-1.39,8.02c-3.69,0-7.28,0-11.1,0
			c3.52-25.9,11.96-49.91,25.66-72.03C75.79,86.4,100.54,63.83,131.58,47.69z"/>
		<path d="M344.1,81.29c-3,2.24-5.88,4.4-8.92,6.67c-0.56-0.49-1.1-0.93-1.6-1.41c-19.13-18.19-41.3-31.24-66.42-39.27
			c-19.15-6.12-38.82-8.73-58.88-7.99c-6.75,0.25-13.48,1.17-20.21,1.89c-1.31,0.14-1.86-0.13-2.22-1.4
			c-0.83-2.93-1.82-5.82-2.81-8.94c26.74-4.58,52.99-3.43,78.96,3.42C293.47,42.59,320.72,58.39,344.1,81.29z"/>
		<path d="M337.68,334.62c2.89,2.09,5.76,4.16,8.89,6.42c-17.63,17.94-37.74,31.89-60.85,41.47
			c-30.34,12.57-61.79,16.69-94.65,12.73c1.04-3.69,2-7.12,2.97-10.6C249.51,389.91,297.37,373.47,337.68,334.62z"/>
	</g>
</g>
<g id="tekst_-_European_Spikeball...">
</g>
</svg>
